<?xml version="1.0" encoding="UTF-8"?>
<!DOCTYPE svg PUBLIC "-//W3C//DTD SVG 1.1//EN" "http://www.w3.org/Graphics/SVG/1.1/DTD/svg11.dtd">
<svg xmlns="http://www.w3.org/2000/svg" version="1.1" width="64px" height="64px" style="shape-rendering:geometricPrecision; text-rendering:geometricPrecision; image-rendering:optimizeQuality; fill-rule:evenodd; clip-rule:evenodd" xmlns:xlink="http://www.w3.org/1999/xlink">
<g><path style="opacity:0.978" fill="#73c2ff" d="M 30.5,9.5 C 33.091,10.2543 34.9243,11.921 36,14.5C 39.3458,19.5206 41.8458,24.854 43.5,30.5C 35.5,30.5 27.5,30.5 19.5,30.5C 21.836,22.8289 25.5027,15.8289 30.5,9.5 Z"/></g>
<g><path style="opacity:1" fill="#f2f9ff" d="M 30.5,15.5 C 31.4959,15.4142 32.3292,15.7476 33,16.5C 35.034,19.7064 36.8674,23.0397 38.5,26.5C 33.8333,27.8333 29.1667,27.8333 24.5,26.5C 26.5283,22.8164 28.5283,19.1497 30.5,15.5 Z"/></g>
<g><path style="opacity:0.837" fill="#4a515a" d="M 16.5,32.5 C 26.5056,32.3335 36.5056,32.5002 46.5,33C 49.0319,36.7016 51.3652,40.535 53.5,44.5C 53.2907,45.086 52.9574,45.586 52.5,46C 38.5,46.6667 24.5,46.6667 10.5,46C 10.0426,45.586 9.70931,45.086 9.5,44.5C 11.845,40.4725 14.1783,36.4725 16.5,32.5 Z"/></g>
<g><path style="opacity:1" fill="#fdfdfd" d="M 47.5,41.5 C 36.8333,42.8333 26.1667,42.8333 15.5,41.5C 16.1534,40.1932 16.8201,38.8599 17.5,37.5C 26.8333,36.1667 36.1667,36.1667 45.5,37.5C 46.1799,38.8599 46.8466,40.1932 47.5,41.5 Z"/></g>
<g><path style="opacity:1" fill="#a7aaae" d="M 15.5,41.5 C 26.1667,42.8333 36.8333,42.8333 47.5,41.5C 48.0431,41.56 48.3764,41.8933 48.5,42.5C 37.1667,43.8333 25.8333,43.8333 14.5,42.5C 14.6236,41.8933 14.9569,41.56 15.5,41.5 Z"/></g>
<g><path style="opacity:0.84" fill="#4b525b" d="M 63.5,59.5 C 63.5,60.5 63.5,61.5 63.5,62.5C 62.8333,62.5 62.5,62.8333 62.5,63.5C 41.8333,63.5 21.1667,63.5 0.5,63.5C 0.5,62.8333 0.166667,62.5 -0.5,62.5C -0.5,61.5 -0.5,60.5 -0.5,59.5C 1.97032,56.1767 4.30366,52.6767 6.5,49C 23.1667,48.3333 39.8333,48.3333 56.5,49C 58.6963,52.6767 61.0297,56.1767 63.5,59.5 Z"/></g>
<g><path style="opacity:1" fill="#fefefe" d="M 57.5,58.5 C 40.1667,59.8333 22.8333,59.8333 5.5,58.5C 6.24234,56.5742 7.24234,54.7409 8.5,53C 23.8333,52.3333 39.1667,52.3333 54.5,53C 55.7577,54.7409 56.7577,56.5742 57.5,58.5 Z"/></g>
<g><path style="opacity:1" fill="#a9acb0" d="M 5.5,58.5 C 22.8333,59.8333 40.1667,59.8333 57.5,58.5C 58.0431,58.56 58.3764,58.8933 58.5,59.5C 40.5,60.8333 22.5,60.8333 4.5,59.5C 4.62358,58.8933 4.95691,58.56 5.5,58.5 Z"/></g>
</svg>
